<?xml version="1.0" encoding="utf-8"?>
<!-- Generator: Adobe Illustrator 24.2.3, SVG Export Plug-In . SVG Version: 6.00 Build 0)  -->
<svg version="1.1" id="Layer_1" xmlns="http://www.w3.org/2000/svg" xmlns:xlink="http://www.w3.org/1999/xlink" x="0px" y="0px"
	 viewBox="0 0 217.54 543.84" style="enable-background:new 0 0 217.54 543.84;" xml:space="preserve">
<style type="text/css">
	.st0{fill:#FFFFFF;}
	.st1{fill:#785D32;}
</style>
<path class="st1" d="M173.58,91.57v0.42h-0.18c-0.05-0.14-0.1-0.28-0.15-0.42H173.58z"/>
<path class="st1" d="M173.58,91.99v0.42h-0.04c-0.05-0.14-0.09-0.28-0.14-0.42H173.58z"/>
<path class="st1" d="M173.58,92.42v0.1c-0.02-0.03-0.02-0.07-0.04-0.1H173.58z"/>
<path class="st1" d="M20.33,52.18c8.65-46.96,78.87-47.89,88.8-1.25c-31.58,2.9-56.39,29.54-56.39,61.86h124.24
	c0.22-29.4-21.57-55.82-50.73-61.08c-8.94-68.62-115.23-68.6-125.94-1.96c-0.73,1.81,0.06,491.93-0.22,494.1h21.21V490.8
	c57.03,86.27,198.07,42.74,196.21-60.98c1.84-103.7-139.18-147.25-196.21-60.97 M114.87,67.33c17.4,0,32.55,9.84,40.18,24.24H74.69
	C82.33,77.17,97.47,67.33,114.87,67.33z M109.95,520.74c-69.67-0.3-108.4-70.72-81.2-131.83c40.87-84.58,173.55-53.08,172.1,40.93
	C200.86,479.95,160.07,520.74,109.95,520.74z"/>
<g>
	<rect x="61.87" y="126.85" class="st1" width="6.04" height="17.42"/>
	<rect x="96.72" y="126.85" class="st1" width="6.04" height="17.42"/>
	<rect x="163.38" y="126.85" class="st1" width="6.06" height="17.42"/>
	<rect x="128.53" y="126.85" class="st1" width="6.06" height="17.42"/>
	<rect x="128.53" y="160.18" class="st1" width="6.06" height="31.05"/>
	<rect x="96.72" y="160.18" class="st1" width="6.04" height="31.05"/>
	<rect x="163.38" y="160.18" class="st1" width="6.06" height="31.05"/>
	<rect x="61.87" y="160.18" class="st1" width="6.04" height="31.05"/>
	<rect x="163.38" y="207.16" class="st1" width="6.06" height="31.05"/>
	<rect x="96.72" y="207.16" class="st1" width="6.04" height="31.05"/>
	<rect x="61.87" y="207.16" class="st1" width="6.04" height="31.05"/>
	<rect x="128.53" y="207.16" class="st1" width="6.06" height="31.05"/>
	<rect x="128.53" y="251.09" class="st1" width="6.06" height="31.07"/>
	<rect x="61.87" y="251.09" class="st1" width="6.04" height="31.07"/>
	<rect x="163.38" y="251.09" class="st1" width="6.06" height="31.07"/>
	<rect x="96.72" y="251.09" class="st1" width="6.04" height="31.07"/>
</g>
</svg>
