<?xml version="1.0" encoding="utf-8"?>
<!-- Generator: Adobe Illustrator 24.2.3, SVG Export Plug-In . SVG Version: 6.00 Build 0)  -->
<svg version="1.1" id="Layer_1" xmlns="http://www.w3.org/2000/svg" xmlns:xlink="http://www.w3.org/1999/xlink" x="0px" y="0px"
	 viewBox="0 0 912.05 64.76" style="enable-background:new 0 0 912.05 64.76;" xml:space="preserve">
<style type="text/css">
	.st0{fill:#FFFFFF;}
	.st1{fill:#785D32;}
</style>
<g>
	<path class="st1" d="M45.44,63.9h-8.61L13.9,33.39l-6.58,5.85V63.9H0V0.99h7.31v31.2l28.53-31.2h8.65l-25.3,27.32L45.44,63.9z"/>
	<path class="st1" d="M71.71,63.9V0.99h7.31V63.9H71.71z"/>
	<path class="st1" d="M133.26,63.9h-7.32V7.49h-19.92v-6.5h47.16v6.5h-19.92V63.9z"/>
	<path class="st1" d="M207.21,6.63c-6.91,0-12.37,2.3-16.37,6.91c-4,4.6-6,10.91-6,18.91c0,8.23,1.93,14.59,5.79,19.08
		c3.86,4.49,9.36,6.73,16.5,6.73c4.39,0,9.39-0.79,15.02-2.37v6.41c-4.36,1.64-9.74,2.45-16.14,2.45c-9.27,0-16.41-2.81-21.45-8.43
		c-5.03-5.62-7.55-13.61-7.55-23.97c0-6.48,1.21-12.16,3.64-17.04c2.42-4.88,5.92-8.63,10.5-11.27c4.58-2.64,9.96-3.96,16.16-3.96
		c6.6,0,12.36,1.2,17.3,3.61l-3.1,6.28C216.73,7.75,211.97,6.63,207.21,6.63z"/>
	<path class="st1" d="M301.25,63.9h-7.31v-29.6h-33.13v29.6h-7.31V0.99h7.31v26.76h33.13V0.99h7.31V63.9z"/>
	<path class="st1" d="M371.2,63.9h-35.07V0.99h35.07v6.5h-27.75v20.27h26.08v6.45h-26.08v23.15h27.75V63.9z"/>
	<path class="st1" d="M451.9,63.9h-8.35L409.17,11.1h-0.34c0.46,6.2,0.69,11.88,0.69,17.04V63.9h-6.76V0.99h8.26l34.29,52.58h0.34
		c-0.06-0.77-0.19-3.26-0.39-7.47c-0.2-4.2-0.27-7.21-0.22-9.01V0.99h6.84V63.9z"/>
	<path class="st1" d="M523.55,47.59c0-3.73,1-7.03,2.99-9.9c1.99-2.87,5.57-5.77,10.74-8.69c-2.44-2.73-4.1-4.79-4.97-6.2
		c-0.87-1.4-1.57-2.87-2.09-4.39c-0.52-1.52-0.77-3.1-0.77-4.73c0-4.3,1.4-7.66,4.22-10.07C536.47,1.2,540.39,0,545.41,0
		c4.65,0,8.3,1.2,10.97,3.59c2.67,2.4,4,5.73,4,10c0,3.07-0.98,5.9-2.93,8.5c-1.95,2.6-5.18,5.23-9.68,7.9l17.51,16.82
		c1.61-1.78,2.89-3.87,3.85-6.26c0.96-2.39,1.77-5.01,2.43-7.85h7.23c-1.95,8.2-4.89,14.43-8.82,18.67l12.87,12.52h-9.85l-7.96-7.66
		c-3.38,3.04-6.83,5.22-10.33,6.54c-3.5,1.32-7.4,1.98-11.7,1.98c-6.17,0-10.95-1.52-14.35-4.56
		C525.25,57.16,523.55,52.95,523.55,47.59z M543.17,58.35c6.91,0,12.65-2.21,17.21-6.63l-18.8-18.24c-3.18,1.95-5.44,3.56-6.76,4.84
		c-1.32,1.28-2.3,2.65-2.93,4.11c-0.63,1.46-0.95,3.13-0.95,4.99c0,3.36,1.11,6.02,3.33,7.98
		C536.51,57.36,539.47,58.35,543.17,58.35z M536.5,13.51c0,1.98,0.52,3.87,1.55,5.66c1.03,1.79,2.8,3.95,5.29,6.48
		c3.7-2.15,6.27-4.14,7.72-5.96c1.45-1.82,2.17-3.92,2.17-6.3c0-2.21-0.74-4.01-2.22-5.4c-1.48-1.39-3.45-2.09-5.92-2.09
		c-2.55,0-4.63,0.69-6.22,2.07C537.3,9.34,536.5,11.19,536.5,13.51z"/>
	<path class="st1" d="M649.8,0.99h17.77c8.35,0,14.38,1.25,18.11,3.74c3.73,2.5,5.59,6.44,5.59,11.83c0,3.73-1.04,6.81-3.12,9.23
		c-2.08,2.42-5.11,3.99-9.1,4.71v0.43c9.55,1.64,14.33,6.66,14.33,15.06c0,5.62-1.9,10.01-5.7,13.17c-3.8,3.16-9.11,4.73-15.94,4.73
		H649.8V0.99z M657.11,27.92h12.05c5.16,0,8.88-0.81,11.14-2.43c2.27-1.62,3.4-4.35,3.4-8.2c0-3.53-1.26-6.07-3.79-7.64
		c-2.52-1.56-6.54-2.34-12.05-2.34h-10.76V27.92z M657.11,34.12v23.54h13.12c5.08,0,8.9-0.98,11.47-2.95
		c2.57-1.96,3.85-5.04,3.85-9.23c0-3.9-1.31-6.77-3.94-8.61c-2.62-1.84-6.62-2.75-11.98-2.75H657.11z"/>
	<path class="st1" d="M764.06,63.9l-7.83-20.01h-25.21l-7.74,20.01h-7.4l24.87-63.16h6.15l24.74,63.16H764.06z M753.95,37.3
		l-7.31-19.49c-0.95-2.47-1.92-5.49-2.93-9.08c-0.63,2.75-1.53,5.78-2.71,9.08l-7.4,19.49H753.95z"/>
	<path class="st1" d="M817.27,63.9h-7.32V7.49h-19.92v-6.5h47.16v6.5h-19.92V63.9z"/>
	<path class="st1" d="M912.05,63.9h-7.31v-29.6H871.6v29.6h-7.31V0.99h7.31v26.76h33.13V0.99h7.31V63.9z"/>
</g>
</svg>
