<?xml version="1.0" encoding="utf-8"?>
<!-- Generator: Adobe Illustrator 24.2.3, SVG Export Plug-In . SVG Version: 6.00 Build 0)  -->
<svg version="1.1" id="Layer_1" xmlns="http://www.w3.org/2000/svg" xmlns:xlink="http://www.w3.org/1999/xlink" x="0px" y="0px"
	 viewBox="0 0 226.06 543" style="enable-background:new 0 0 226.06 543;" xml:space="preserve">
<style type="text/css">
	.st0{fill:#FFFFFF;}
	.st1{fill:#785D32;}
</style>
<g>
	<path class="st1" d="M159.57,420.03L75.91,543c-5.84-3.98-11.7-7.95-17.54-11.94l85.17-125.19c2.29,1.43,4.15,3.47,6.19,5.24
		C153,414.07,156.29,417.06,159.57,420.03z"/>
	<path class="st1" d="M226.06,0v537.87h-21.22V461.1c-35.66-32.35-103.81-94.16-140.09-127.05c4.74-5.24,9.51-10.47,14.25-15.72
		l125.84,114.13v-29.69l-62.25-56.46c4.74-5.24,9.5-10.48,14.25-15.72l48,43.54V0H226.06z"/>
	<g>
		
			<rect x="42.32" y="344.72" transform="matrix(0.7658 -0.643 0.643 0.7658 -210.7658 115.9411)" class="st1" width="22.97" height="5.3"/>
		
			<rect x="50.49" y="352.39" transform="matrix(0.6949 -0.7191 0.7191 0.6949 -236.3969 152.8779)" class="st1" width="22.97" height="5.3"/>
		
			<rect x="58.98" y="360.73" transform="matrix(0.6359 -0.7717 0.7717 0.6359 -254.7753 186.6759)" class="st1" width="22.97" height="5.3"/>
		
			<rect x="20.67" y="362.9" transform="matrix(0.7658 -0.643 0.643 0.7658 -227.5282 106.2738)" class="st1" width="22.97" height="5.3"/>
		
			<rect x="30.84" y="372.72" transform="matrix(0.6949 -0.7191 0.7191 0.6949 -257.0125 144.9511)" class="st1" width="22.97" height="5.3"/>
		
			<rect x="41" y="382.55" transform="matrix(0.6359 -0.7717 0.7717 0.6359 -278.1624 180.743)" class="st1" width="22.97" height="5.3"/>
		
			<rect x="-0.99" y="381.08" transform="matrix(0.7658 -0.643 0.643 0.7658 -244.2907 96.6066)" class="st1" width="22.97" height="5.3"/>
		
			<rect x="11.19" y="393.06" transform="matrix(0.6949 -0.7191 0.7191 0.6949 -277.6282 137.0243)" class="st1" width="22.97" height="5.3"/>
		
			<rect x="23.02" y="404.37" transform="matrix(0.6359 -0.7717 0.7717 0.6359 -301.5496 174.81)" class="st1" width="22.97" height="5.3"/>
	</g>
</g>
</svg>
