<?xml version="1.0" encoding="utf-8"?>
<!-- Generator: Adobe Illustrator 24.2.3, SVG Export Plug-In . SVG Version: 6.00 Build 0)  -->
<svg version="1.1" id="Layer_1" xmlns="http://www.w3.org/2000/svg" xmlns:xlink="http://www.w3.org/1999/xlink" x="0px" y="0px"
	 viewBox="0 0 960.04 215.14" style="enable-background:new 0 0 960.04 215.14;" xml:space="preserve">
<style type="text/css">
	.st0{fill:#FFFFFF;}
	.st1{fill:#785D32;}
</style>
<g>
	<path class="st1" d="M133.98,155.45c0,18.61-6.73,33.21-20.18,43.8c-13.45,10.59-32.02,15.89-55.68,15.89
		c-23.67,0-43.04-3.67-58.12-11.02v-32.35c9.54,4.49,19.68,8.02,30.42,10.59c10.73,2.58,20.73,3.86,29.99,3.86
		c13.55,0,23.55-2.58,29.99-7.73c6.44-5.15,9.66-12.07,9.66-20.76c0-7.82-2.96-14.46-8.88-19.9c-5.92-5.44-18.13-11.88-36.64-19.32
		c-19.09-7.73-32.54-16.56-40.36-26.48C6.35,82.11,2.43,70.19,2.43,56.25c0-17.46,6.2-31.2,18.61-41.22C33.45,5.01,50.1,0,71,0
		c20.04,0,39.98,4.39,59.83,13.17l-10.88,27.91c-18.61-7.82-35.21-11.74-49.81-11.74c-11.07,0-19.47,2.41-25.19,7.23
		c-5.73,4.82-8.59,11.19-8.59,19.11c0,5.44,1.14,10.09,3.44,13.96c2.29,3.86,6.06,7.51,11.31,10.95c5.25,3.43,14.69,7.97,28.34,13.6
		c15.36,6.39,26.62,12.36,33.78,17.89c7.16,5.54,12.4,11.79,15.75,18.75C132.31,137.8,133.98,146,133.98,155.45z"/>
	<path class="st1" d="M264.95,212.28L204.26,37.5h-1.15c1.62,25.96,2.43,50.29,2.43,73v101.77h-31.06V3.01h48.24l58.11,166.47h0.86
		L341.53,3.01h48.38v209.27h-32.92V108.79c0-10.4,0.26-23.95,0.79-40.65c0.52-16.7,0.98-26.81,1.36-30.35h-1.14l-62.84,174.49
		H264.95z"/>
	<path class="st1" d="M574.85,212.28l-20.9-58.11h-80.01l-20.47,58.11H417.4l78.3-210.13h37.22l78.3,210.13H574.85z M544.93,124.67
		L525.32,67.7c-1.43-3.82-3.41-9.83-5.94-18.04c-2.53-8.21-4.27-14.22-5.22-18.04c-2.58,11.74-6.35,24.57-11.31,38.5l-18.89,54.54
		H544.93z"/>
	<path class="st1" d="M673.04,128.68v83.59h-34.21V3.01h59.12c27,0,47,5.06,59.98,15.17c12.98,10.12,19.47,25.38,19.47,45.8
		c0,26.05-13.55,44.61-40.65,55.68l59.12,92.61h-38.93l-50.1-83.59H673.04z M673.04,100.34h23.76c15.94,0,27.48-2.96,34.64-8.88
		c7.16-5.92,10.74-14.69,10.74-26.34c0-11.83-3.86-20.33-11.59-25.48c-7.73-5.15-19.37-7.73-34.93-7.73h-22.62V100.34z"/>
	<path class="st1" d="M898.49,212.28h-34.21V32.35h-61.55V3.01h157.31v29.34h-61.55V212.28z"/>
</g>
</svg>
